<mxfile host="app.diagrams.net" modified="2024-01-19T01:24:37.395Z" agent="Mozilla/5.0 (Windows NT 10.0; Win64; x64) AppleWebKit/537.36 (KHTML, like Gecko) Chrome/120.0.0.0 Safari/537.36" version="22.1.18" etag="nZ6ntQ6OiZ1YNh69J-a4" type="github">
  <diagram name="Page-1" id="5zWq9BCNIkcAiXTZ1AiH">
    <mxGraphModel>
      <root>
        <mxCell id="0" />
        <mxCell id="1" parent="0" />
      </root>
    </mxGraphModel>
  </diagram>
</mxfile>
